<?xml version="1.0" standalone="no"?>
<!DOCTYPE svg PUBLIC "-//W3C//DTD SVG 1.1//EN" "http://www.w3.org/Graphics/SVG/1.1/DTD/svg11.dtd" >
<!--
2013-9-30: Created.
-->
<svg>
<metadata>
Created by iconfont
</metadata>
<defs>

<font id="iconfont" horiz-adv-x="1024" >
  <font-face
    font-family="iconfont"
    font-weight="500"
    font-stretch="normal"
    units-per-em="1024"
    ascent="896"
    descent="-128"
  />
    <missing-glyph />
    
    <glyph glyph-name="shangchuan" unicode="&#59007;" d="M2.569 360.802c0 105.557 72.617 198.305 169.626 225.76C225.893 722.635 358.917 820.269 514.509 820.269c156.817 0 286.17-97.634 339.864-233.708C954.444 558.495 1024 466.971 1024 360.802c0-130.575-105.56-236.746-239.182-236.746-25.019 0-47.598 22.57-47.598 47.587 0 28.681 22.579 47.599 47.598 47.599 80.541 0 144.609 62.845 144.609 141.561 0 42.1-18.92 81.151-50.036 106.169l-8.535 7.936c-2.448 3.049-6.109 5.485-10.983 8.535-2.45 3.061-7.936 3.061-10.985 5.499l-3.049 0c-2.447 3.048-5.497 3.048-7.934 5.486l-3.049 0c-2.45 0-5.498 3.062-8.548 3.062-2.438 0-5.487 0-5.487 2.436l-7.935 0c-3.051 0-5.487 0-8.547 3.049l-5.487 0-14.034 0-3.048 0c-2.449 9.148-5.498 15.859-5.498 25.018-2.437 0-2.437 3.049-2.437 5.486-3.049 5.499-3.049 10.985-5.486 16.483 0 3.049-3.061 3.049-3.061 6.098-2.437 5.486-5.488 10.984-8.536 16.471l0 5.498c-2.448 5.486-7.936 10.985-10.983 16.471-46.988 78.102-133.624 131.187-231.26 131.187-100.071 0-186.708-53.085-233.694-131.187l-7.935-16.471c0-1.837-1.225-1.837-1.825-3.661l-1.225-1.837-8.547-16.471 0-6.098-7.923-16.483 0-5.486c-3.062-9.159-6.11-15.87-6.11-25.018l-5.486 0-13.421 0-6.11 0c-2.437-3.049-5.486-3.049-7.923-3.049l-5.499 0c-2.437-1.836-3.661-2.436-4.273-2.436-0.612-0.612-1.212-0.612-1.825 0-2.437 0-5.498-3.062-7.935-3.062l-5.486 0c-3.062-2.438-5.498-2.438-8.547-5.486l-3.049 0c-2.437-2.438-5.499-2.438-7.936-5.499l-3.049 0c-2.437-3.05-5.486-5.486-8.547-8.535-5.486-2.437-7.923-5.498-10.984-7.936-31.116-25.018-46.974-64.069-46.974-106.169 0-78.716 64.069-141.561 141.559-141.561 28.68 0 50.036-18.918 50.036-47.599 0-25.018-21.356-47.587-50.036-47.587C111.188 124.056 2.569 230.227 2.569 360.802L2.569 360.802zM322.916 202.159c0 14.033 5.486 24.406 10.984 33.555l144.608 158.653c9.16 9.148 21.969 14.034 36.002 14.034 14.034 0 25.019-4.886 36.616-14.034l141.558-158.653c9.147-9.147 14.034-20.746 14.034-33.555 0-25.018-21.356-46.987-50.037-46.987-14.033 0-24.404 7.322-33.564 16.471l-61.007 66.519 0-239.193c0-28.678-21.356-46.987-47.6-46.987-27.454 0-46.985 18.308-46.985 46.987L467.525 238.161l-61.021-66.519c-9.147-9.147-22.568-16.471-36.602-16.471C344.883 155.173 322.916 177.143 322.916 202.159z"  horiz-adv-x="1024" />

    
    <glyph glyph-name="jiantou" unicode="&#59164;" d="M302.57282 452.891651 750.153536 2.902738 1197.906266 452.891651 934.380648 452.891651 934.380648 821.345876 565.926424 821.345876 565.926424 452.891651Z"  horiz-adv-x="1449" />

    
    <glyph glyph-name="jiantou1" unicode="&#58885;" d="M512.405229 767.983371c-211.606419 0-383.146307-171.539888-383.146307-383.146307 0-211.607442 171.539888-383.146307 383.146307-383.146306s383.146307 171.539888 383.146307 383.146306-171.538865 383.146307-383.146307 383.146307z m-16.954137-590.446653V290.22115h-192.187137V479.451956h192.187137V592.137411l262.141372-207.299323-262.141372-207.30137z"  horiz-adv-x="1024" />

    
    <glyph glyph-name="jia" unicode="&#58936;" d="M861.6192 296.704h-273.25952v-278.44096c0-46.14144-36.72576-83.49184-81.9712-83.49184-45.31712 0-81.98656 37.36064-81.98656 83.49184V296.704H151.07584c-45.2352 0-81.95584 37.33504-81.95584 83.5072 0 46.08512 36.72064 83.49184 81.95584 83.49184h273.28V742.13888c0 46.08512 36.72064 83.51744 81.95584 83.51744 45.27616 0 81.98144-37.44768 81.98144-83.51744v-278.44096h273.27488c45.30688 0 81.95584-37.41696 81.95584-83.49184 0.06656-46.16704-36.65408-83.50208-81.90464-83.50208z"  horiz-adv-x="1024" />

    
    <glyph glyph-name="jiantou2" unicode="&#58890;" d="M64.303 424.85l447.695-450.159 447.699 450.158h-263.489v368.458h-368.415v-368.458z"  horiz-adv-x="1024" />

    
    <glyph glyph-name="jian" unicode="&#58897;" d="M921.6 281.6H102.4c-56.32 0-102.4 46.08-102.4 102.4s46.08 102.4 102.4 102.4h819.2c56.32 0 102.4-46.08 102.4-102.4s-46.08-102.4-102.4-102.4z"  horiz-adv-x="1024" />

    
    <glyph glyph-name="elevator-up" unicode="&#58882;" d="M870.65 830.794h-716.738c-49.5 0-89.606-40.051-89.606-89.381v-714.826c0-49.331 40.106-89.325 89.606-89.325h716.738c49.5 0 89.606 39.994 89.606 89.325v714.826c0 49.331-40.106 89.381-89.606 89.381zM599.695 337.425v-178.819h-179.213v178.819h-179.212l268.819 357.581 268.819-357.581h-179.213z"  horiz-adv-x="1024" />

    
    <glyph glyph-name="jiantou3" unicode="&#58883;" d="M835.567 382.757c0-10.595-3.741-20.572-11.22-28.05L541.953 72.312c-7.478-7.481-17.455-11.221-28.053-11.221s-20.571 3.739-28.05 11.221l-56.729 56.727c-7.479 7.481-11.844 17.457-11.844 28.054 0 10.597 4.364 20.569 11.844 28.05l117.821 117.822H234.003c-21.818 0-39.896 18.079-39.896 39.896v79.794c0 21.818 18.078 39.894 39.896 39.894h312.938L429.12 580.37c-7.479 7.481-11.22 17.454-11.22 28.051 0 10.598 3.739 20.573 11.22 28.053l56.729 56.727c7.479 7.481 17.453 11.221 28.05 11.221s20.574-3.739 28.053-11.221L824.346 410.81c7.479-7.482 11.221-17.456 11.221-28.054z m156.469 0c0 264.314-214.445 478.759-478.757 478.759-264.316 0-478.758-214.445-478.758-478.759C34.521 118.445 248.964-96 513.279-96c264.312 0 478.757 214.445 478.757 478.757z"  horiz-adv-x="1024" />

    
    <glyph glyph-name="xia" unicode="&#58880;" d="M168.395 406.642h207.698v332.305h249.237v-332.305h207.698l-332.318-332.304-332.318 332.304z"  horiz-adv-x="1000" />

    
    <glyph glyph-name="shang-copy" unicode="&#58887;" d="M922.302413 686.52006599l-819.094215 1e-8c-41.95438 0-62.324364-30.956959-43.8839-54.555504 25.143008-32.230612 387.072-477.281322 409.659239-504.518876 20.255736-24.440595 68.48952099-24.859504 88.728331 0 30.79616501 37.841455 390.884496 481.195372 408.72409901 503.380628 22.282579 27.686083-6.05090901 55.693752-44.13355401 55.69375199z"  horiz-adv-x="1024" />

    
    <glyph glyph-name="xia1" unicode="&#58968;" d="M128 389.632h246.272v394.24h295.424v-393.728h246.272L522.24-3.584 128 389.632z"  horiz-adv-x="1024" />

    
    <glyph glyph-name="zuo" unicode="&#58881;" d="M850.269-23.07200001000001l0 821.24300002c0 45.467-35.892 82.191-80.688 82.19099999-20.78599999 0-39.625-8.12700001-53.89299999-21.134l-533.81400001-406.118c-35.363-27.178-42.801-78.468-15.957-114.638 4.581-6.334 9.956-11.867 15.95699999-16.209l539.45300002-410.757c35.363-26.902 86.09099999-19.655 112.60699999 16.48 11.171 14.836 16.279 31.857 16.279 48.953v0 0 0zM850.269-23.07200001000001z"  horiz-adv-x="1024" />

    
    <glyph glyph-name="shang" unicode="&#58904;" d="M538.766 616.586l372.032-438.23c12.51-14.736 10.705-36.823-4.031-49.333a35 35 0 0 0-22.651-8.318H139.674c-19.33 0-35 15.67-35 35a35 35 0 0 0 8.33 22.664l372.41 438.23c12.517 14.73 34.605 16.524 49.335 4.007a35 35 0 0 0 4.017-4.02z"  horiz-adv-x="1024" />

    
    <glyph glyph-name="left-arrow" unicode="&#58884;" d="M468.147-66l-406.147 450 406.147 450ZM962.001 164.625l-624.015 0 0 438.75 624.015 0 0-438.75Z"  horiz-adv-x="1024" />

    
    <glyph glyph-name="jiajian" unicode="&#58886;" d="M3618.751131-128H164.488688C74.135747-128 0-53.864253 0 36.488688v695.022624C0 821.864253 74.135747 896 164.488688 896h3454.262443c90.352941 0 164.488688-74.135747 164.488688-164.488688v-695.022624c0-90.352941-74.135747-164.488688-164.488688-164.488688zM164.488688 849.665158C99.61991 849.665158 46.334842 796.38009 46.334842 731.511312v-695.022624c0-64.868778 53.285068-118.153846 118.153846-118.153846h3454.262443c64.868778 0 118.153846 53.285068 118.153846 118.153846v695.022624c0 64.868778-53.285068 118.153846-118.153846 118.153846H164.488688zM1026.316742 863.565611h46.334842v-968.39819h-46.334842zM284.959276 407.167421h509.683258v-46.334842h-509.683258zM2972.38009 407.167421h509.683258v-46.334842h-509.683258zM3201.737557 638.841629h46.334841v-509.683258h-46.334841zM2689.737557 863.565611h46.334841v-968.39819h-46.334841z"  horiz-adv-x="3783" />

    
    <glyph glyph-name="jiantou4" unicode="&#60314;" d="M885.7 63.5h-747c-41.3 0-74.8 32.9-74.8 73.8 0 19 7.4 36.3 19.2 49.3l369.4 488.5c24.8 32.3 71.4 39.1 104.3 14.6 5.8-4.2 10.8-9.1 14.7-14.6l373.6-493.7c24.5-32.4 17.9-78.8-15-103.1-13.3-10.1-28.8-14.8-44.4-14.8z m0 0"  horiz-adv-x="1024" />

    
    <glyph glyph-name="jiantou-you" unicode="&#59410;" d="M1024 384a512 512 0 1 0-1024 0A512 512 0 0 0 1024 384z m-281.92 48.256L587.648 586.688a44.8 44.8 0 0 1-63.36 0l-14.592-14.592a44.8 44.8 0 0 1 0-63.36L579.2 439.168l-254.272-1e-8a44.8 44.8 0 0 1-44.8-44.79999999l0-20.736a44.8 44.8 0 0 1 44.8-44.79999999L580.032 328.832l-69.44-69.44a44.8 44.8 0 0 1 0-63.36l14.656-14.592a44.8 44.8 0 0 1 63.36 0L759.168 352a44.8 44.8 0 0 1 0 63.36l-14.656 14.656a45.44 45.44 0 0 1-2.432 2.24z"  horiz-adv-x="1024" />

    
    <glyph glyph-name="top-arrow-copy" unicode="&#60315;" d="M62 427.853l450 406.14699999 450-406.14699999ZM292.625-66.00099999999998l0 624.015 438.75 0 0-624.015-438.75 0Z"  horiz-adv-x="1024" />

    
    <glyph glyph-name="bottom-arrow-copy" unicode="&#60316;" d="M962 340.14700000000005l-450-406.14699999-450 406.14699999ZM731.375 834.001l0-624.015-438.75 0 0 624.015 438.75 0Z"  horiz-adv-x="1024" />

    
    <glyph glyph-name="right-arrow-copy" unicode="&#60317;" d="M555.853 834l406.14699999-450-406.14699999-450ZM61.999 603.375l624.015 0 0-438.75-624.015 0 0 438.75Z"  horiz-adv-x="1024" />

    


  </font>
</defs>
</svg>
